<?xml version="1.0" ?><!DOCTYPE svg  PUBLIC '-//W3C//DTD SVG 1.1//EN'  'http://www.w3.org/Graphics/SVG/1.1/DTD/svg11.dtd'><svg enable-background="new 0 0 512 512" height="512px" id="Dental_x5F_medicine" version="1.1" viewBox="0 0 512 512" width="512px" xml:space="preserve" xmlns="http://www.w3.org/2000/svg" xmlns:xlink="http://www.w3.org/1999/xlink"><g><path d="M157.96,240.48c-1.87,0-3.76,0.279-5.66,0.85l-8.59,2.609c-5.57,1.69-11.22,1.69-16.79,0l-8.59-2.609   c-6.61-2-13.26-0.45-18.24,4.24c-7.02,6.619-9.79,18.32-7.04,29.8l13.21,55.22c1.4,5.85,6.63,10.09,12.51,10.09   c4.25-0.02,7.84-3.38,8.17-7.649c1.1-14.38,5.55-27.591,8.38-30.8c2.83,3.209,7.28,16.42,8.38,30.8c0.33,4.27,3.91,7.63,8.22,7.649   c5.82,0,11.06-4.24,12.46-10.09l13.2-55.22c2.75-11.479-0.01-23.181-7.03-29.8C167,242.22,162.59,240.48,157.96,240.48z    M167.86,273.05l-13.21,55.21c-0.17,0.74-0.62,1.4-1.19,1.84c-0.92-8.399-5.12-38.319-18.14-38.319   c-13.03,0-17.22,29.93-18.14,38.319c-0.57-0.439-1.02-1.1-1.2-1.84l-13.2-55.21c-2.2-9.17,0.51-16.76,4.16-20.2   c1.69-1.59,3.59-2.38,5.69-2.38c0.9,0,1.83,0.14,2.8,0.44l8.59,2.6c7.5,2.271,15.1,2.271,22.59,0l8.59-2.6   c3.23-0.98,6.09-0.33,8.49,1.939C167.34,256.29,170.05,263.88,167.86,273.05z"/><path d="M447.01,184.09h-161.48c-2.119-10.35-5.979-20.32-11.449-29.449l-24.73-41.281V96.98h2.05c7.831,0,14.19-6.36,14.19-14.19   V30.67c0-7.83-6.359-14.2-14.19-14.2H78.39c-7.82,0-14.19,6.37-14.19,14.2v52.12c0,7.83,6.37,14.19,14.19,14.19h2.05v16.379   l-24.73,41.281c-8.75,14.609-13.38,31.34-13.38,48.369v5.41c-0.07,0.32-0.1,0.66-0.1,1.01v160.29c0,0.341,0.03,0.681,0.1,1.011   V401.6c0,27.17,22.1,49.271,49.27,49.271h146.59c2.5,0,4.96-0.19,7.37-0.55v22.439c0,12.551,10.21,22.771,22.76,22.771H447.01   c12.551,0,22.76-10.22,22.76-22.771V206.85C469.77,194.3,459.561,184.09,447.01,184.09z M255.59,30.67v52.12   c0,2.31-1.88,4.19-4.19,4.19h-7.05h-17.036V26.47H251.4C253.71,26.47,255.59,28.359,255.59,30.67z M189.036,86.98V26.47h28.279   V86.98H189.036z M112.478,86.98V26.47h28.279V86.98H112.478z M179.036,86.98h-28.279V26.47h28.279V86.98z M74.2,82.79V30.67   c0-2.311,1.88-4.2,4.19-4.2h24.088V86.98H85.44h-7.05C76.08,86.98,74.2,85.1,74.2,82.79z M52.33,214.43h164.98v150.29H52.33V214.43   z M238.19,440.87H91.6c-21.65,0-39.27-17.62-39.27-39.271v-26.88h169.98c2.77,0,5-2.239,5-5V209.43c0-2.77-2.23-5-5-5H52.33v-1.42   c0-15.22,4.14-30.17,11.96-43.229l24.52-40.94l0.002-0.003H177c2.761,0,5-2.238,5-5s-2.239-5-5-5H90.44V96.98h17.004   c0.011,0,0.022,0.003,0.034,0.003s0.022-0.003,0.034-0.003h38.21c0.012,0,0.022,0.003,0.034,0.003s0.022-0.003,0.034-0.003h38.21   c0.012,0,0.022,0.003,0.034,0.003s0.022-0.003,0.034-0.003h38.21c0.012,0,0.022,0.003,0.034,0.003s0.022-0.003,0.034-0.003h17.001   v11.856H203c-2.761,0-5,2.238-5,5s2.239,5,5,5h37.978l0.002,0.003l24.52,40.94c4.54,7.569,7.83,15.78,9.8,24.31h-6.979   c-12.55,0-22.76,10.21-22.76,22.76v233.32C243.17,440.63,240.71,440.87,238.19,440.87z M459.77,472.76   c0,7.04-5.729,12.771-12.76,12.771H268.32c-7.041,0-12.76-5.73-12.76-12.771v-25.05v-10.899V206.85   c0-7.039,5.719-12.76,12.76-12.76h8.66h10.049h159.98c7.03,0,12.76,5.721,12.76,12.76V472.76z"/><g><path d="M323.12,228.74h-35.66h-2.29c-2.77,0-5.391,0.66-7.71,1.82c-5.67,2.84-9.569,8.709-9.569,15.47    c0,6.75,3.899,12.62,9.569,15.46c2.319,1.16,4.94,1.82,7.71,1.82h2.29h35.66c9.53,0,17.29-7.761,17.29-17.28    C340.41,236.5,332.65,228.74,323.12,228.74z M285.17,253.311c-4.02,0-7.279-3.271-7.279-7.28c0-4.021,3.26-7.29,7.279-7.29h2.29    h11.686v14.57H287.46H285.17z M323.12,253.311h-13.975v-14.57h13.975c4.021,0,7.29,3.27,7.29,7.29    C330.41,250.04,327.141,253.311,323.12,253.311z"/><path d="M430.16,228.74H392.2c-9.53,0-17.28,7.76-17.28,17.29c0,9.52,7.75,17.28,17.28,17.28h37.96    c9.529,0,17.279-7.761,17.279-17.28C447.439,236.5,439.689,228.74,430.16,228.74z M384.92,246.03c0-4.021,3.26-7.29,7.28-7.29    h13.978v14.57H392.2C388.18,253.311,384.92,250.04,384.92,246.03z M430.16,253.311h-13.982v-14.57h13.982    c4.01,0,7.279,3.27,7.279,7.29C437.439,250.04,434.17,253.311,430.16,253.311z"/><path d="M323.12,275.63h-35.66h-2.29c-2.77,0-5.391,0.66-7.71,1.82c-5.67,2.84-9.569,8.71-9.569,15.47    c0,6.75,3.899,12.62,9.569,15.46c2.319,1.16,4.94,1.82,7.71,1.82h2.29h35.66c9.53,0,17.29-7.761,17.29-17.28    C340.41,283.391,332.65,275.63,323.12,275.63z M285.17,300.2c-4.02,0-7.279-3.271-7.279-7.28c0-4.02,3.26-7.29,7.279-7.29h2.29    h11.686v14.57H287.46H285.17z M323.12,300.2h-13.975v-14.57h13.975c4.021,0,7.29,3.271,7.29,7.29    C330.41,296.93,327.141,300.2,323.12,300.2z"/><path d="M430.16,275.63H392.2c-9.53,0-17.28,7.761-17.28,17.29c0,9.52,7.75,17.28,17.28,17.28h37.96    c9.529,0,17.279-7.761,17.279-17.28C447.439,283.391,439.689,275.63,430.16,275.63z M384.92,292.92c0-4.02,3.26-7.29,7.28-7.29    h13.978v14.57H392.2C388.18,300.2,384.92,296.93,384.92,292.92z M430.16,300.2h-13.982v-14.57h13.982    c4.01,0,7.279,3.271,7.279,7.29C437.439,296.93,434.17,300.2,430.16,300.2z"/><path d="M323.12,322.53h-18.929c-0.016-0.001-0.03-0.005-0.046-0.005s-0.03,0.004-0.046,0.005h-16.64h-2.29    c-2.77,0-5.391,0.659-7.71,1.819c-5.67,2.83-9.569,8.7-9.569,15.461c0,6.75,3.899,12.619,9.569,15.459    c2.319,1.16,4.94,1.82,7.71,1.82h2.29h35.66c9.53,0,17.29-7.76,17.29-17.279C340.41,330.28,332.65,322.53,323.12,322.53z     M285.17,347.09c-4.02,0-7.279-3.27-7.279-7.279c0-4.021,3.26-7.28,7.279-7.28h2.29h11.686v14.56H287.46H285.17z M323.12,347.09    h-13.975v-14.56h13.975c4.021,0,7.29,3.26,7.29,7.28C330.41,343.82,327.141,347.09,323.12,347.09z"/><path d="M430.16,322.53h-18.936c-0.016-0.001-0.031-0.005-0.047-0.005s-0.029,0.004-0.045,0.005H392.2    c-9.53,0-17.28,7.75-17.28,17.28c0,9.52,7.75,17.279,17.28,17.279h37.96c9.529,0,17.279-7.76,17.279-17.279    C447.439,330.28,439.689,322.53,430.16,322.53z M384.92,339.811c0-4.021,3.26-7.28,7.28-7.28h13.978v14.56H392.2    C388.18,347.09,384.92,343.82,384.92,339.811z M430.16,347.09h-13.982v-14.56h13.982c4.01,0,7.279,3.26,7.279,7.28    C437.439,343.82,434.17,347.09,430.16,347.09z"/><path d="M323.12,416.311h-18.931c-0.016,0-0.029-0.005-0.044-0.005s-0.028,0.005-0.044,0.005H285.21h-0.04    c-9.529,0-17.279,7.75-17.279,17.279c0,2.24,0.43,4.38,1.209,6.34c2.53,6.4,8.78,10.94,16.07,10.94h37.95    c9.53,0,17.29-7.75,17.29-17.28C340.41,424.061,332.65,416.311,323.12,416.311z M277.891,433.59c0-4.02,3.26-7.279,7.279-7.279    h13.976v14.56H285.17C281.15,440.87,277.891,437.6,277.891,433.59z M323.12,440.87h-13.975v-14.56h13.975    c4.021,0,7.29,3.26,7.29,7.279C330.41,437.6,327.141,440.87,323.12,440.87z"/><path d="M323.12,369.42h-18.937c-0.013,0-0.025-0.004-0.038-0.004s-0.025,0.004-0.038,0.004H287.46h-2.29    c-2.77,0-5.391,0.66-7.71,1.82c-5.67,2.83-9.569,8.699-9.569,15.46c0,6.76,3.899,12.62,9.56,15.45c2.319,1.17,4.94,1.83,7.72,1.83    h2.23h35.72c9.53,0,17.29-7.75,17.29-17.28S332.65,369.42,323.12,369.42z M285.17,393.98c-4.02,0-7.279-3.271-7.279-7.28    c0-4.021,3.26-7.28,7.279-7.28h2.29h11.686v14.561H287.46H285.17z M323.12,393.98h-13.975V379.42h13.975    c4.021,0,7.29,3.26,7.29,7.28C330.41,390.71,327.141,393.98,323.12,393.98z"/><path d="M430.16,369.42h-18.943c-0.014,0-0.025-0.004-0.039-0.004c-0.013,0-0.025,0.004-0.038,0.004H392.2    c-9.53,0-17.28,7.75-17.28,17.28s7.75,17.28,17.28,17.28h37.96c9.529,0,17.279-7.75,17.279-17.28S439.689,369.42,430.16,369.42z     M384.92,386.7c0-4.021,3.26-7.28,7.28-7.28h13.978v14.561H392.2C388.18,393.98,384.92,390.71,384.92,386.7z M430.16,393.98    h-13.982V379.42h13.982c4.01,0,7.279,3.26,7.279,7.28C437.439,390.71,434.17,393.98,430.16,393.98z"/><path d="M430.16,416.311h-18.938c-0.015,0-0.028-0.005-0.044-0.005c-0.015,0-0.028,0.005-0.043,0.005H392.2    c-9.53,0-17.28,7.75-17.28,17.279c0,9.53,7.75,17.28,17.28,17.28h37.96c9.529,0,17.279-7.75,17.279-17.28    C447.439,424.061,439.689,416.311,430.16,416.311z M384.92,433.59c0-4.02,3.26-7.279,7.28-7.279h13.978v14.56H392.2    C388.18,440.87,384.92,437.6,384.92,433.59z M430.16,440.87h-13.982v-14.56h13.982c4.01,0,7.279,3.26,7.279,7.279    C437.439,437.6,434.17,440.87,430.16,440.87z"/></g><g><path d="M357.73,286.42c-2.76,0-5,2.23-5,5v20c0,2.76,2.24,5,5,5c2.77,0,5-2.24,5-5v-20C362.73,288.65,360.5,286.42,357.73,286.42    z"/><path d="M357.73,206.42c-2.76,0-5,2.23-5,5v20c0,2.76,2.24,5,5,5c2.77,0,5-2.24,5-5v-20C362.73,208.65,360.5,206.42,357.73,206.42    z"/><path d="M357.73,366.42c-2.76,0-5,2.23-5,5v20c0,2.76,2.24,5,5,5c2.77,0,5-2.24,5-5v-20C362.73,368.65,360.5,366.42,357.73,366.42    z"/><path d="M357.73,246.42c-2.76,0-5,2.23-5,5v20c0,2.76,2.24,5,5,5c2.77,0,5-2.24,5-5v-20C362.73,248.65,360.5,246.42,357.73,246.42    z"/><path d="M357.73,326.42c-2.76,0-5,2.23-5,5v20c0,2.76,2.24,5,5,5c2.77,0,5-2.24,5-5v-20C362.73,328.65,360.5,326.42,357.73,326.42    z"/><path d="M357.73,406.42c-2.76,0-5,2.23-5,5v20c0,2.76,2.24,5,5,5c2.77,0,5-2.24,5-5v-20C362.73,408.65,360.5,406.42,357.73,406.42    z"/><path d="M357.73,446.42c-2.76,0-5,2.23-5,5v16.78c0,2.76,2.24,5,5,5c2.77,0,5-2.24,5-5v-16.78    C362.73,448.65,360.5,446.42,357.73,446.42z"/></g></g></svg>